<mxfile host="app.diagrams.net" agent="Mozilla/5.0 (Windows NT 10.0; Win64; x64; rv:137.0) Gecko/20100101 Firefox/137.0" version="26.2.6">
  <diagram name="Seite-1" id="K09PaBzidMXk3vOnrqan">
    <mxGraphModel dx="1148" dy="693" grid="1" gridSize="10" guides="1" tooltips="1" connect="1" arrows="1" fold="1" page="1" pageScale="1" pageWidth="827" pageHeight="1169" math="0" shadow="0">
      <root>
        <mxCell id="0" />
        <mxCell id="1" parent="0" />
        <mxCell id="2mTRD1QN39Iv2M-Kc4Nl-71" value="" style="ellipse;shape=startState;fillColor=#000000;strokeColor=#ff0000;" vertex="1" parent="1">
          <mxGeometry x="424.51" y="60" width="30" height="30" as="geometry" />
        </mxCell>
        <mxCell id="2mTRD1QN39Iv2M-Kc4Nl-72" style="edgeStyle=orthogonalEdgeStyle;rounded=0;orthogonalLoop=1;jettySize=auto;html=1;entryX=0.5;entryY=0;entryDx=0;entryDy=0;" edge="1" parent="1" source="2mTRD1QN39Iv2M-Kc4Nl-71">
          <mxGeometry relative="1" as="geometry">
            <mxPoint x="439.5" y="160" as="sourcePoint" />
            <mxPoint x="439.51" y="190" as="targetPoint" />
          </mxGeometry>
        </mxCell>
        <mxCell id="2mTRD1QN39Iv2M-Kc4Nl-77" value="Fotos herunterladen" style="shape=umlFrame;whiteSpace=wrap;html=1;pointerEvents=0;width=106;height=30;" vertex="1" parent="1">
          <mxGeometry x="190" y="50" width="330" height="350" as="geometry" />
        </mxCell>
        <mxCell id="2mTRD1QN39Iv2M-Kc4Nl-114" value="" style="ellipse;shape=endState;fillColor=#000000;strokeColor=#ff0000" vertex="1" parent="1">
          <mxGeometry x="140" y="138.5" width="30" height="30" as="geometry" />
        </mxCell>
        <mxCell id="2mTRD1QN39Iv2M-Kc4Nl-115" style="edgeStyle=orthogonalEdgeStyle;rounded=0;orthogonalLoop=1;jettySize=auto;html=1;" edge="1" parent="1" source="2mTRD1QN39Iv2M-Kc4Nl-116" target="2mTRD1QN39Iv2M-Kc4Nl-114">
          <mxGeometry relative="1" as="geometry" />
        </mxCell>
        <mxCell id="2mTRD1QN39Iv2M-Kc4Nl-116" value="Abbrechen" style="shape=dataStorage;whiteSpace=wrap;html=1;fixedSize=1;" vertex="1" parent="1">
          <mxGeometry x="200" y="130" width="110" height="47" as="geometry" />
        </mxCell>
        <mxCell id="2mTRD1QN39Iv2M-Kc4Nl-117" style="edgeStyle=orthogonalEdgeStyle;rounded=0;orthogonalLoop=1;jettySize=auto;html=1;dashed=1;" edge="1" parent="1" source="2mTRD1QN39Iv2M-Kc4Nl-118" target="2mTRD1QN39Iv2M-Kc4Nl-116">
          <mxGeometry relative="1" as="geometry" />
        </mxCell>
        <mxCell id="2mTRD1QN39Iv2M-Kc4Nl-118" value="Man kann jederzeit die Aktivität abbrechen" style="shape=note;whiteSpace=wrap;size=17" vertex="1" parent="1">
          <mxGeometry x="205" y="205.5" width="100" height="70" as="geometry" />
        </mxCell>
        <mxCell id="2mTRD1QN39Iv2M-Kc4Nl-124" style="edgeStyle=orthogonalEdgeStyle;rounded=0;orthogonalLoop=1;jettySize=auto;html=1;entryX=0.5;entryY=0;entryDx=0;entryDy=0;" edge="1" parent="1" source="2mTRD1QN39Iv2M-Kc4Nl-121" target="2mTRD1QN39Iv2M-Kc4Nl-123">
          <mxGeometry relative="1" as="geometry" />
        </mxCell>
        <mxCell id="2mTRD1QN39Iv2M-Kc4Nl-121" value="UC: Fotos &#xa;auswählen" style="" vertex="1" parent="1">
          <mxGeometry x="384.51" y="100" width="110" height="50" as="geometry" />
        </mxCell>
        <mxCell id="2mTRD1QN39Iv2M-Kc4Nl-128" style="edgeStyle=orthogonalEdgeStyle;rounded=0;orthogonalLoop=1;jettySize=auto;html=1;" edge="1" parent="1" source="2mTRD1QN39Iv2M-Kc4Nl-122" target="2mTRD1QN39Iv2M-Kc4Nl-126">
          <mxGeometry relative="1" as="geometry" />
        </mxCell>
        <mxCell id="2mTRD1QN39Iv2M-Kc4Nl-122" value="Speicherort &#xa;festlegen" style="" vertex="1" parent="1">
          <mxGeometry x="384.51" y="238.5" width="110" height="50" as="geometry" />
        </mxCell>
        <mxCell id="2mTRD1QN39Iv2M-Kc4Nl-125" style="edgeStyle=orthogonalEdgeStyle;rounded=0;orthogonalLoop=1;jettySize=auto;html=1;entryX=0.5;entryY=0;entryDx=0;entryDy=0;" edge="1" parent="1" source="2mTRD1QN39Iv2M-Kc4Nl-123" target="2mTRD1QN39Iv2M-Kc4Nl-122">
          <mxGeometry relative="1" as="geometry" />
        </mxCell>
        <mxCell id="2mTRD1QN39Iv2M-Kc4Nl-123" value="Fotos &#xa;herunterladen" style="" vertex="1" parent="1">
          <mxGeometry x="384.51" y="170" width="110" height="50" as="geometry" />
        </mxCell>
        <mxCell id="2mTRD1QN39Iv2M-Kc4Nl-126" value="" style="ellipse;shape=endState;fillColor=#000000;strokeColor=#ff0000" vertex="1" parent="1">
          <mxGeometry x="424.51" y="320" width="30" height="30" as="geometry" />
        </mxCell>
        <mxCell id="2mTRD1QN39Iv2M-Kc4Nl-130" style="edgeStyle=orthogonalEdgeStyle;rounded=0;orthogonalLoop=1;jettySize=auto;html=1;dashed=1;" edge="1" parent="1" source="2mTRD1QN39Iv2M-Kc4Nl-129" target="2mTRD1QN39Iv2M-Kc4Nl-126">
          <mxGeometry relative="1" as="geometry" />
        </mxCell>
        <mxCell id="2mTRD1QN39Iv2M-Kc4Nl-129" value="Fotos landen im gewünschten Speicherort" style="shape=note;whiteSpace=wrap;size=17" vertex="1" parent="1">
          <mxGeometry x="230" y="300" width="100" height="70" as="geometry" />
        </mxCell>
      </root>
    </mxGraphModel>
  </diagram>
</mxfile>
